<svg width="18" height="18" viewBox="0 0 18 18" fill="none" xmlns="http://www.w3.org/2000/svg">
<path d="M16.0167 0.863281H4.08C2.95667 0.863281 2.04667 1.74995 1.99334 2.85995C1.99334 2.89328 1.98334 2.92328 1.98334 2.95995C1.98334 4.11662 2.92334 5.05661 4.08 5.05661H16.0133V0.863281H16.0167Z" fill="url(#paint0_linear_1173_390)"/>
<path d="M4.08 5.05663C2.92334 5.05663 1.98334 4.11663 1.98334 2.95996V14.9733H1.99C1.99 14.9966 1.98334 15.02 1.98334 15.0433C1.98334 16.2 2.92334 17.14 4.08 17.14H16.0133V5.05663H4.08Z" fill="url(#paint1_linear_1173_390)"/>
<path d="M8.8633 10.1867L7.01997 8.92999L5.17664 10.1867V7.62999V5.07666H7.01997H8.8633V7.62999V10.1867Z" fill="#FF6E4F"/>
<path d="M15.2933 3.37679H9.73667C9.50667 3.37679 9.32001 3.19012 9.32001 2.96012C9.32001 2.73012 9.50667 2.54346 9.73667 2.54346H15.2933C15.5233 2.54346 15.71 2.73012 15.71 2.96012C15.71 3.19012 15.5233 3.37679 15.2933 3.37679Z" fill="#D2D2D2"/>
<defs>
<linearGradient id="paint0_linear_1173_390" x1="9" y1="5.05661" x2="9" y2="0.863281" gradientUnits="userSpaceOnUse">
<stop stop-color="white"/>
<stop offset="1" stop-color="#F0F0F0"/>
</linearGradient>
<linearGradient id="paint1_linear_1173_390" x1="8.99834" y1="2.95996" x2="8.99834" y2="17.14" gradientUnits="userSpaceOnUse">
<stop stop-color="#FFC93E"/>
<stop offset="1" stop-color="#FFE27C"/>
</linearGradient>
</defs>
</svg>
