<svg width="18" height="18" viewBox="0 0 18 18" fill="none" xmlns="http://www.w3.org/2000/svg">
<path d="M15.15 3.57329C15.15 3.13995 14.7967 2.78662 14.3634 2.78662H2.83672C2.40338 2.78662 2.05005 3.13995 2.05005 3.57329V16.9366C2.05005 17.37 2.40338 17.7233 2.83672 17.7233H11.3534L15.1534 13.9233V3.57329H15.15Z" fill="url(#paint0_linear_1173_398)"/>
<path d="M15.15 13.9233H12.1366C11.7033 13.9233 11.35 14.2767 11.35 14.71V17.7233L15.15 13.9233Z" fill="#6699FF"/>
<path d="M11.06 8.84645L10.12 7.90645L8.24332 6.02979L7.83999 7.63312L7.43999 9.23645L7.21332 10.1365L6.98999 11.0398L7.88999 10.8131L8.79332 10.5865L10.3967 10.1865L12 9.78645L11.06 8.84645Z" fill="white"/>
<path d="M16.52 2.80352L15.87 2.15686L13.9933 0.276855L11.1167 3.15352L8.24335 6.03019L10.12 7.90686L12 9.78686L14.8733 6.91019L17.75 4.03686L16.52 2.80352Z" fill="url(#paint1_linear_1173_398)"/>
<defs>
<linearGradient id="paint0_linear_1173_398" x1="8.60172" y1="2.78662" x2="8.60172" y2="17.7233" gradientUnits="userSpaceOnUse">
<stop stop-color="#F1F5FF"/>
<stop offset="1" stop-color="#CDDBFF"/>
</linearGradient>
<linearGradient id="paint1_linear_1173_398" x1="12.9967" y1="0.276855" x2="12.9967" y2="9.78686" gradientUnits="userSpaceOnUse">
<stop stop-color="#FFC93E"/>
<stop offset="1" stop-color="#FFAF3E"/>
</linearGradient>
</defs>
</svg>
