<svg width="18" height="18" viewBox="0 0 18 18" fill="none" xmlns="http://www.w3.org/2000/svg">
<path d="M8.99627 16.4436C13.1093 16.4436 16.4435 13.1093 16.4435 8.99632C16.4435 4.88332 13.1093 1.54907 8.99627 1.54907C4.88327 1.54907 1.54903 4.88332 1.54903 8.99632C1.54903 13.1093 4.88327 16.4436 8.99627 16.4436Z" fill="#9823C9"/>
<path d="M8.99628 12.4742C8.47497 12.4742 8.00579 12.1614 7.81216 11.6773L5.74927 6.62062C5.5333 6.09932 5.92056 5.52588 6.48655 5.52588H6.64294C6.97062 5.52588 7.26107 5.72695 7.38022 6.02484L9.05585 10.2325L10.7687 6.0174C10.8879 5.71951 11.1783 5.52588 11.506 5.52588C12.072 5.52588 12.4518 6.09932 12.2433 6.62062L10.1729 11.6848C9.97931 12.1688 9.51014 12.4816 8.98883 12.4816L8.99628 12.4742Z" fill="white"/>
</svg>
