<svg width="20" height="20" viewBox="0 0 20 20" fill="none" xmlns="http://www.w3.org/2000/svg">
<path d="M9.99587 18.2706C14.5659 18.2706 18.2706 14.5659 18.2706 9.99591C18.2706 5.42591 14.5659 1.72119 9.99587 1.72119C5.42586 1.72119 1.72115 5.42591 1.72115 9.99591C1.72115 14.5659 5.42586 18.2706 9.99587 18.2706Z" fill="#FF793E"/>
<path d="M8.20853 13.7691C7.96856 13.7029 7.75342 13.6284 7.55482 13.5374C7.15764 13.3636 6.96732 12.9085 7.13281 12.5114L7.16591 12.4203C7.33968 12.0066 7.81961 11.8411 8.23335 12.0231C8.36575 12.0811 8.50642 12.1307 8.64709 12.1804C9.07737 12.321 9.49938 12.3955 9.92139 12.3955C10.36 12.3955 10.6909 12.3293 10.8978 12.2052C11.1047 12.0811 11.2122 11.9073 11.2122 11.7004C11.2122 11.4687 11.0964 11.3032 10.8564 11.1874C10.6165 11.0715 10.2441 10.9557 9.7228 10.8399C9.15184 10.6992 8.68019 10.5585 8.32437 10.4178C7.96856 10.2772 7.65412 10.0455 7.38933 9.73104C7.12454 9.41661 6.99214 8.99459 6.99214 8.46501C6.99214 8.00163 7.10799 7.57962 7.34795 7.20725C7.58792 6.83489 7.94374 6.537 8.42367 6.32186C8.9036 6.10672 9.48283 5.99915 10.1779 5.99915C10.6661 5.99915 11.1295 6.05707 11.5846 6.17291C11.7667 6.22256 11.9404 6.27221 12.1059 6.33841C12.4948 6.48735 12.6769 6.94246 12.5362 7.33965L12.5031 7.4224C12.3459 7.83613 11.8908 8.02645 11.477 7.86923C11.0302 7.70374 10.5834 7.61272 10.1531 7.61272C9.7228 7.61272 9.40009 7.67891 9.20149 7.81958C9.0029 7.96025 8.89533 8.1423 8.89533 8.37399C8.89533 8.60568 9.01117 8.7629 9.24287 8.87047C9.47456 8.97804 9.84692 9.09389 10.36 9.20974C10.9226 9.33386 11.386 9.46625 11.7584 9.6152C12.1307 9.76414 12.4452 9.98756 12.71 10.2937C12.9748 10.5999 13.1072 11.0219 13.1072 11.5515C13.1072 12.0066 12.983 12.4203 12.7431 12.7927C12.5031 13.1651 12.139 13.4629 11.6508 13.6781C11.1626 13.9015 10.5751 14.0091 9.88829 14.0091C9.30906 14.0091 8.73811 13.9263 8.19198 13.7691H8.20853Z" fill="white"/>
</svg>
