<svg width="18" height="18" viewBox="0 0 18 18" fill="none" xmlns="http://www.w3.org/2000/svg">
<path d="M15.6667 10.7435C15.4367 10.7435 15.25 10.5569 15.25 10.3269V8.45687C15.25 5.0102 12.4467 2.20687 9.00002 2.20687C5.55335 2.20687 2.75002 5.0102 2.75002 8.45687V10.3269C2.75002 10.5569 2.56335 10.7435 2.33335 10.7435C2.10335 10.7435 1.91669 10.5569 1.91669 10.3269V8.45687C1.91669 4.5502 5.09335 1.37354 9.00002 1.37354C12.9067 1.37354 16.0834 4.5502 16.0834 8.45687V10.3269C16.0834 10.5569 15.8967 10.7435 15.6667 10.7435Z" fill="#A9B1C0"/>
<path d="M0.59668 12.7636C0.59668 14.6369 2.09335 16.1636 3.95668 16.2102V9.31689C2.09335 9.36356 0.59668 10.8869 0.59668 12.7636Z" fill="url(#paint0_linear_1173_416)"/>
<path d="M17.4033 12.7636C17.4033 14.6369 15.9067 16.1636 14.0433 16.2102V9.31689C15.9067 9.36356 17.4033 10.8869 17.4033 12.7636Z" fill="url(#paint1_linear_1173_416)"/>
<defs>
<linearGradient id="paint0_linear_1173_416" x1="2.27668" y1="9.31689" x2="2.27668" y2="16.2102" gradientUnits="userSpaceOnUse">
<stop stop-color="#BB67E1"/>
<stop offset="1" stop-color="#9D29D1"/>
</linearGradient>
<linearGradient id="paint1_linear_1173_416" x1="15.7233" y1="9.31689" x2="15.7233" y2="16.2102" gradientUnits="userSpaceOnUse">
<stop stop-color="#BB67E1"/>
<stop offset="1" stop-color="#9D29D1"/>
</linearGradient>
</defs>
</svg>
