<svg width="18" height="18" viewBox="0 0 18 18" fill="none" xmlns="http://www.w3.org/2000/svg">
<path d="M8.99627 16.4436C13.1093 16.4436 16.4435 13.1093 16.4435 8.99632C16.4435 4.88332 13.1093 1.54907 8.99627 1.54907C4.88327 1.54907 1.54903 4.88332 1.54903 8.99632C1.54903 13.1093 4.88327 16.4436 8.99627 16.4436Z" fill="#0F9CFE"/>
<path d="M8.72776 6.74472V11.4737H11.2077C11.6173 11.4737 11.945 11.8014 11.945 12.211C11.945 12.6206 11.6173 12.9483 11.2077 12.9483H7.74472C7.33513 12.9483 7 12.6132 7 12.2036V6.73728C7 6.32768 7.32768 6 7.73728 6H7.98304C8.39264 6 8.72031 6.32768 8.72031 6.73728L8.72776 6.74472Z" fill="white"/>
</svg>
