<svg width="32" height="32" viewBox="0 0 32 32" fill="none" xmlns="http://www.w3.org/2000/svg">
<g clip-path="url(#clip0_1096_43)">
<path d="M16 16.8089C13.1467 16.8089 10.8178 14.4889 10.8178 11.6267C10.8178 8.76446 13.1378 6.44446 16 6.44446C18.8622 6.44446 21.1822 8.76446 21.1822 11.6267C21.1822 14.4889 18.8622 16.8089 16 16.8089ZM16 7.77779C13.8756 7.77779 12.1511 9.50224 12.1511 11.6267C12.1511 13.7511 13.8756 15.4756 16 15.4756C18.1244 15.4756 19.8489 13.7511 19.8489 11.6267C19.8489 9.50224 18.1244 7.77779 16 7.77779Z" fill="#565573"/>
<path d="M23.4489 24.8888H22.1156C22.1156 21.5199 19.3689 18.7733 16 18.7733C12.6311 18.7733 9.88445 21.5199 9.88445 24.8888H8.55112C8.55112 20.7822 11.8933 17.4399 16 17.4399C20.1067 17.4399 23.4489 20.7822 23.4489 24.8888Z" fill="#565573"/>
</g>
<defs>
<clipPath id="clip0_1096_43">
<rect width="32" height="32" fill="white"/>
</clipPath>
</defs>
</svg>
