<svg width="64" height="65" viewBox="0 0 64 65" fill="none" xmlns="http://www.w3.org/2000/svg">
<path d="M25.4125 15.0316L8.26803 41.3915C4.86706 46.6177 8.6171 53.5293 14.8505 53.5293H49.1395C55.3729 53.5293 59.1229 46.6177 55.722 41.3915L38.5775 15.0316C35.4758 10.2642 28.5043 10.2642 25.4125 15.0316Z" fill="url(#paint0_linear_1171_2331)"/>
<g filter="url(#filter0_d_1171_2331)">
<path d="M14.8505 49.5396C12.776 49.5396 11.7787 48.1234 11.4496 47.515C11.1204 46.9066 10.4722 45.3009 11.6091 43.5655L28.7536 17.2055C29.4817 16.0885 30.6585 15.4502 31.995 15.4502C33.3314 15.4502 34.5083 16.0885 35.2364 17.2055L52.3808 43.5655C53.5078 45.3109 52.8695 46.9066 52.5404 47.515C52.2113 48.1234 51.2239 49.5396 49.1395 49.5396H14.8505Z" fill="url(#paint1_linear_1171_2331)" shape-rendering="crispEdges"/>
</g>
<path d="M34.3588 25.7627V37.1225H29.6213V25.7627H34.3588ZM34.3887 39.0275V43.8546H29.6513V39.0275H34.3887Z" fill="#FD2B2F"/>
<defs>
<filter id="filter0_d_1171_2331" x="7.96533" y="14.4502" width="48.0551" height="40.0894" filterUnits="userSpaceOnUse" color-interpolation-filters="sRGB">
<feFlood flood-opacity="0" result="BackgroundImageFix"/>
<feColorMatrix in="SourceAlpha" type="matrix" values="0 0 0 0 0 0 0 0 0 0 0 0 0 0 0 0 0 0 127 0" result="hardAlpha"/>
<feOffset dy="2"/>
<feGaussianBlur stdDeviation="1.5"/>
<feComposite in2="hardAlpha" operator="out"/>
<feColorMatrix type="matrix" values="0 0 0 0 0.870833 0 0 0 0 0.326562 0 0 0 0 0.326562 0 0 0 1 0"/>
<feBlend mode="normal" in2="BackgroundImageFix" result="effect1_dropShadow_1171_2331"/>
<feBlend mode="normal" in="SourceGraphic" in2="effect1_dropShadow_1171_2331" result="shape"/>
</filter>
<linearGradient id="paint0_linear_1171_2331" x1="31.995" y1="11.4561" x2="31.995" y2="53.5293" gradientUnits="userSpaceOnUse">
<stop stop-color="#FFC757"/>
<stop offset="1" stop-color="#FF9257"/>
</linearGradient>
<linearGradient id="paint1_linear_1171_2331" x1="31.9929" y1="15.4502" x2="31.9929" y2="49.5396" gradientUnits="userSpaceOnUse">
<stop stop-color="white" stop-opacity="0.6"/>
<stop offset="1" stop-color="white"/>
</linearGradient>
</defs>
</svg>
