<svg width="30" height="30" viewBox="0 0 30 30" fill="none" xmlns="http://www.w3.org/2000/svg">
<path d="M15 30C23.2843 30 30 23.2843 30 15C30 6.71573 23.2843 0 15 0C6.71573 0 0 6.71573 0 15C0 23.2843 6.71573 30 15 30Z" fill="#FFE291"/>
<path d="M16.8568 14.3434C18.4596 14.3434 19.759 13.044 19.759 11.4411C19.759 9.83822 18.4596 8.53882 16.8568 8.53882C15.2539 8.53882 13.9545 9.83822 13.9545 11.4411C13.9545 13.044 15.2539 14.3434 16.8568 14.3434Z" fill="#47443A"/>
<path d="M12.0096 7.91051C11.8002 7.91051 11.5808 7.86065 11.3813 7.74096C10.7829 7.39189 10.5834 6.63391 10.9325 6.03549L12.1692 3.92111C12.5183 3.3227 13.2763 3.12323 13.8747 3.4723C14.4731 3.82138 14.6726 4.57936 14.3235 5.17777L13.0868 7.29216C12.8574 7.6911 12.4385 7.91051 12.0096 7.91051Z" fill="#47443A"/>
<path d="M23.3994 14.5528C23.19 14.5528 22.9706 14.503 22.7711 14.3833C22.1727 14.0342 21.9732 13.2762 22.3223 12.6778L23.559 10.5634C23.9081 9.96503 24.6661 9.76556 25.2645 10.1146C25.8629 10.4637 26.0623 11.2217 25.7133 11.8201L24.4766 13.9345C24.2472 14.3334 23.8283 14.5528 23.3994 14.5528Z" fill="#47443A"/>
</svg>
