<svg width="64" height="64" viewBox="0 0 64 64" fill="none" xmlns="http://www.w3.org/2000/svg">
<path d="M42.2417 36.8061C40.8753 39.0502 37.6938 39.2197 36.1778 37.0655L16.7195 9.24934C16.1909 9.08976 15.6523 9 15.0938 9H11.5931C10.1569 9 9 10.1569 9 11.5931V52.285C9 53.7212 10.1569 54.8781 11.5931 54.8781H52.285C53.7212 54.8781 54.8781 53.7212 54.8781 52.285V29.9444C54.8781 29.9444 47.3581 28.3785 42.2417 36.7962V36.8061Z" fill="url(#paint0_linear_1186_123)"/>
<path d="M37.8794 38.2284H36.0343V36.1539C36.0343 33.9298 34.2191 32.1146 31.995 32.1146C29.7709 32.1146 27.9558 33.9298 27.9558 36.1539V38.2284H26.1107V36.1539C26.1107 32.9125 28.7536 30.2695 31.995 30.2695C35.2364 30.2695 37.8794 32.9125 37.8794 36.1539V38.2284Z" fill="#9183AD"/>
<path d="M38.4379 36.9319H25.5621C24.7249 36.9319 24.0461 37.6106 24.0461 38.4479V46.4067C24.0461 47.244 24.7249 47.9227 25.5621 47.9227H38.4379C39.2752 47.9227 39.9539 47.244 39.9539 46.4067V38.4479C39.9539 37.6106 39.2752 36.9319 38.4379 36.9319Z" fill="#332A44"/>
<path d="M33.3015 43.2851C33.3015 42.567 32.7231 41.9885 32.005 41.9885C31.2869 41.9885 30.7084 42.567 30.7084 43.2851C30.7084 43.7838 30.9977 44.2026 31.4066 44.4221V45.948H32.6034V44.4221C33.0123 44.2026 33.3015 43.7838 33.3015 43.2851Z" fill="white"/>
<path d="M42.2977 36.862C47.4141 28.4443 54.9341 30.0102 54.9341 30.0102L17.8725 9.75398C17.5235 9.56449 17.1544 9.41488 16.7755 9.30518L36.2437 37.1213C37.7497 39.2756 40.9413 39.106 42.3076 36.862H42.2977Z" fill="url(#paint1_linear_1186_123)"/>
<defs>
<linearGradient id="paint0_linear_1186_123" x1="54.8831" y1="8.92013" x2="9.00498" y2="54.7983" gradientUnits="userSpaceOnUse">
<stop stop-color="#F2F2F2"/>
<stop offset="0.51" stop-color="#EEEDF3"/>
<stop offset="1" stop-color="#E8E7F3"/>
</linearGradient>
<linearGradient id="paint1_linear_1186_123" x1="35.8548" y1="9.30518" x2="35.8548" y2="38.6449" gradientUnits="userSpaceOnUse">
<stop stop-color="#E8E7F3"/>
<stop offset="1" stop-color="#C4C3D6"/>
</linearGradient>
</defs>
</svg>
